<svg width="76" height="75" viewBox="0 0 76 75" fill="none" xmlns="http://www.w3.org/2000/svg">
<path d="M39.5845 45.481H28.8423V56.25H27.3921V45.481H22.021V44.0308H27.3921V39.7339H22.021V38.2837H27.3921V17.1484H39.6113C43.6038 17.1484 46.7012 18.16 48.9033 20.1831C51.1234 22.1883 52.2334 24.9813 52.2334 28.562C52.2334 32.1069 51.1502 34.8462 48.9839 36.7798C46.8354 38.7134 43.7739 39.6981 39.7993 39.7339H28.8423V44.0308H39.5845V45.481ZM28.8423 38.2837H39.6113C43.1383 38.2837 45.8776 37.4333 47.8291 35.7324C49.7985 34.0316 50.7832 31.6593 50.7832 28.6157C50.7832 25.4647 49.7985 23.0119 47.8291 21.2573C45.8776 19.4849 43.1383 18.5986 39.6113 18.5986H28.8423V38.2837Z" fill="#FF7900"/>
<circle cx="38" cy="37.5" r="37.125" stroke="#FF7900" stroke-width="0.75"/>
</svg>
