<svg width="600" height="600" viewBox="0 0 600 600" fill="none" xmlns="http://www.w3.org/2000/svg">
<path d="M512.132 512.132C479.593 544.671 440.006 569.288 396.432 584.079C352.858 598.871 306.465 603.44 260.842 597.434C215.219 591.427 171.59 575.007 133.329 549.441C95.0677 523.876 63.2004 489.852 40.1923 450L66.173 435C86.8804 470.867 115.561 501.488 149.996 524.497C184.431 547.506 223.697 562.285 264.758 567.69C305.818 573.096 347.572 568.984 386.789 555.672C426.005 542.359 461.634 520.204 490.919 490.919L512.132 512.132Z" fill="#FFC3A1"/>
<path d="M40.1922 449.999C13.8617 404.393 -0.000137175 352.66 -0.00014072 299.999C-0.000144265 247.338 13.8618 195.605 40.1922 149.999L66.173 164.999C42.4755 206.044 29.9999 252.604 29.9999 299.999C29.9999 347.394 42.4756 393.954 66.173 434.999L40.1922 449.999Z" fill="#A3FFA1"/>
<path d="M40.1922 150.001C66.5227 104.395 104.394 66.5238 150 40.1933L165 66.1741C123.955 89.8716 89.8704 123.956 66.173 165.001L40.1922 150.001Z" fill="#FFA1A1"/>
<path d="M150 40.1933C184.118 20.4951 221.782 7.70977 260.842 2.56748C299.901 -2.5748 339.591 0.0266035 377.646 10.2232L369.881 39.201C335.632 30.024 299.911 27.6828 264.758 32.3109C229.604 36.9389 195.706 48.4456 165 66.1741L150 40.1933Z" fill="#A1F4FF"/>
<path d="M377.645 10.223C415.699 20.4196 451.373 38.0117 482.628 61.9948C513.883 85.9779 540.109 115.882 559.807 150.001L533.826 165.001C516.098 134.294 492.495 107.38 464.365 85.7954C436.235 64.2106 404.129 48.3777 369.881 39.2008L377.645 10.223Z" fill="#CAA1FF"/>
<path d="M559.807 149.999C592.828 207.192 606.053 273.682 597.433 339.157C588.813 404.632 558.829 465.434 512.132 512.131L490.919 490.918C532.946 448.89 559.932 394.169 567.69 335.241C575.448 276.313 563.545 216.472 533.827 164.999L559.807 149.999Z" fill="#FFA1D9"/>
</svg>
