<svg width="141" height="141" viewBox="0 0 141 141" fill="none" xmlns="http://www.w3.org/2000/svg">
<path d="M70.5 140.5C56.2876 140.5 42.412 136.174 30.7179 128.097C19.0238 120.02 10.0654 108.574 5.03373 95.2824C0.00206857 81.9906 -0.864438 67.482 2.54942 53.6857C5.96329 39.8895 13.4958 27.4592 24.1454 18.0477C34.7949 8.63611 48.0571 2.68919 62.1684 0.997591C76.2797 -0.694004 90.5717 1.94988 103.144 8.5777C115.716 15.2055 125.973 25.5033 132.551 38.1018C139.129 50.7002 141.716 65.0026 139.969 79.1071" stroke="#DDDDDD"/>
<path d="M140 70.5C140 87.3613 133.87 103.648 122.753 116.325C111.635 129.002 96.2886 137.205 79.5716 139.405C62.8546 141.606 45.9075 137.655 31.8879 128.287C17.8682 118.92 7.73218 104.775 3.36816 88.4879C-0.995863 72.2012 0.709793 54.8834 8.16734 39.7609C15.6249 24.6385 28.3257 12.7429 43.9035 6.29038C59.4813 -0.162155 76.8736 -0.731523 92.84 4.68835C108.806 10.1082 122.258 21.1477 130.689 35.75" stroke="#FF7900" stroke-width="2"/>
</svg>
