<svg width="140" height="140" viewBox="0 0 140 140" fill="none" xmlns="http://www.w3.org/2000/svg">
<path d="M70 139.5C55.8892 139.5 42.1126 135.205 30.5021 127.185C18.8915 119.166 9.99707 107.802 5.00135 94.6054C0.00562522 81.4085 -0.854692 67.0035 2.53479 53.3058C5.92426 39.6081 13.4029 27.2666 23.9765 17.9223C34.55 8.578 47.7174 2.67355 61.7279 0.994037C75.7384 -0.685476 89.9283 1.93952 102.411 8.52C114.893 15.1005 125.077 25.3247 131.608 37.8332C138.139 50.3417 140.708 64.5418 138.973 78.5456" stroke="#DDDDDD"/>
<path d="M139 70C139 85.9635 133.465 101.433 123.338 113.773C113.211 126.113 99.118 134.56 83.4612 137.674C67.8045 140.789 51.5522 138.378 37.4736 130.853C23.3951 123.327 12.3613 111.154 6.25231 96.4052C0.143341 81.6568 -0.662847 65.2465 3.97112 49.9704C8.60508 34.6942 18.3925 21.4975 31.6656 12.6286C44.9388 3.75975 60.8765 -0.232443 76.7632 1.33225C92.6498 2.89695 107.502 9.92172 118.79 21.2096" stroke="#FF7900" stroke-width="2"/>
</svg>
