<svg width="140" height="140" viewBox="0 0 140 140" fill="none" xmlns="http://www.w3.org/2000/svg">
<path d="M70 139.5C55.8892 139.5 42.1126 135.205 30.5021 127.185C18.8915 119.166 9.99707 107.802 5.00135 94.6054C0.00562522 81.4085 -0.854692 67.0035 2.53479 53.3058C5.92426 39.6081 13.4029 27.2666 23.9765 17.9223C34.55 8.578 47.7174 2.67355 61.7279 0.994037C75.7384 -0.685476 89.9283 1.93952 102.411 8.52C114.893 15.1005 125.077 25.3247 131.608 37.8332C138.139 50.3417 140.708 64.5418 138.973 78.5456" stroke="#DDDDDD"/>
<path d="M139 70C139 85.1893 133.988 99.9541 124.741 112.005C115.495 124.055 102.53 132.718 87.8585 136.649C73.1868 140.58 57.6279 139.56 43.5948 133.748C29.5618 127.935 17.8389 117.654 10.2442 104.5C2.64962 91.3457 -0.392292 76.053 1.5903 60.9937C3.5729 45.9344 10.4692 31.9501 21.2096 21.2096C31.9501 10.4692 45.9344 3.5729 60.9937 1.59031C76.053 -0.392292 91.3457 2.64961 104.5 10.2442" stroke="#FF7900" stroke-width="2"/>
</svg>
