<svg width="24" height="24" viewBox="0 0 24 24" fill="none" xmlns="http://www.w3.org/2000/svg">
<path d="M12.94 11.9995L18.4667 6.47281C18.5759 6.34527 18.633 6.18122 18.6265 6.01344C18.62 5.84565 18.5504 5.68649 18.4317 5.56776C18.313 5.44903 18.1538 5.37948 17.986 5.373C17.8183 5.36652 17.6542 5.42359 17.5267 5.53281L12 11.0595L6.47334 5.52614C6.3478 5.4006 6.17754 5.33008 6 5.33008C5.82247 5.33008 5.6522 5.4006 5.52667 5.52614C5.40113 5.65168 5.33061 5.82194 5.33061 5.99947C5.33061 6.17701 5.40113 6.34727 5.52667 6.47281L11.06 11.9995L5.52667 17.5261C5.45688 17.5859 5.4002 17.6594 5.36019 17.7422C5.32017 17.8249 5.29768 17.915 5.29414 18.0068C5.29059 18.0986 5.30606 18.1901 5.33958 18.2757C5.37309 18.3612 5.42393 18.4389 5.4889 18.5039C5.55387 18.5689 5.63157 18.6197 5.71712 18.6532C5.80267 18.6867 5.89423 18.7022 5.98604 18.6987C6.07785 18.6951 6.16794 18.6726 6.25065 18.6326C6.33336 18.5926 6.4069 18.5359 6.46667 18.4661L12 12.9395L17.5267 18.4661C17.6542 18.5754 17.8183 18.6324 17.986 18.6259C18.1538 18.6195 18.313 18.5499 18.4317 18.4312C18.5504 18.3125 18.62 18.1533 18.6265 17.9855C18.633 17.8177 18.5759 17.6537 18.4667 17.5261L12.94 11.9995Z" fill="#3A3E46"/>
</svg>
